<?xml version="1.0" standalone="no"?>
<!DOCTYPE svg PUBLIC "-//W3C//DTD SVG 20010904//EN"
 "http://www.w3.org/TR/2001/REC-SVG-20010904/DTD/svg10.dtd">
<svg version="1.0" xmlns="http://www.w3.org/2000/svg"
 width="512.000000pt" height="512.000000pt" viewBox="0 0 512.000000 512.000000"
 preserveAspectRatio="xMidYMid meet">

<g transform="translate(0.000000,512.000000) scale(0.100000,-0.100000)"
fill="#000000" stroke="none">
<path d="M687 4939 c-91 -22 -171 -84 -218 -171 -33 -61 -34 -67 -37 -195 l-4
-133 2132 0 2132 0 -4 133 c-3 128 -4 134 -37 195 -38 70 -92 120 -167 154
l-49 23 -1855 2 c-1066 0 -1871 -3 -1893 -8z m224 -188 c31 -31 36 -59 17 -94
-20 -39 -40 -46 -120 -47 -74 0 -77 1 -103 32 -32 38 -29 81 11 116 21 18 37
22 95 22 65 0 73 -2 100 -29z m404 19 c30 -11 54 -60 47 -96 -8 -45 -46 -64
-129 -64 -65 0 -77 3 -98 25 -35 34 -33 78 4 116 26 26 36 29 90 29 33 0 71
-4 86 -10z m428 -2 c53 -28 64 -92 22 -133 -21 -22 -33 -25 -100 -25 -67 0
-79 3 -100 25 -42 41 -32 105 20 133 27 15 131 15 158 0z m2238 -17 c37 -38
39 -82 4 -116 l-24 -25 -714 0 c-696 0 -715 0 -739 20 -14 11 -28 31 -30 44
-7 34 17 85 44 96 13 5 323 9 726 9 l704 1 29 -29z"/>
<path d="M432 2598 l3 -1673 27 -50 c49 -93 126 -154 223 -180 46 -12 119 -15
336 -15 l276 0 41 38 c22 20 207 194 411 387 l371 350 -107 107 -108 108 -42
-21 c-42 -21 -115 -27 -172 -14 -41 9 -47 -8 -27 -76 26 -85 12 -116 -102
-231 -104 -104 -132 -118 -210 -103 -31 6 -70 39 -260 228 -244 243 -253 257
-232 340 9 32 31 62 98 130 48 49 99 95 114 103 34 18 94 18 146 0 50 -18 65
-7 50 36 -14 41 -5 128 18 171 25 48 501 526 579 582 134 96 298 155 471 170
70 6 88 4 127 -13 52 -23 77 -55 84 -110 9 -66 -16 -100 -145 -200 -64 -50
-141 -113 -169 -139 -69 -64 -70 -86 -4 -156 26 -29 57 -68 67 -87 26 -51 25
-143 -4 -200 l-22 -45 112 -112 112 -112 30 26 c17 14 73 66 125 116 l93 90
-11 38 c-38 126 -32 303 14 438 72 213 217 368 438 471 108 50 190 70 313 77
87 5 106 3 146 -14 103 -46 141 -163 85 -268 -8 -16 -86 -100 -171 -185 l-156
-155 0 -102 c0 -56 3 -108 6 -117 5 -13 26 -16 122 -16 l116 0 161 160 c97 96
175 165 197 175 91 37 198 -1 246 -90 40 -73 7 -321 -63 -471 -161 -349 -500
-528 -867 -457 -49 9 -89 14 -90 12 -2 -3 -41 -44 -87 -91 l-84 -87 338 -340
339 -341 321 0 c257 0 333 3 380 15 100 26 172 85 223 180 l27 50 3 1673 2
1672 -2130 0 -2130 0 2 -1672z m2269 1383 c16 -16 29 -40 29 -53 0 -13 -41
-183 -90 -378 -97 -386 -98 -390 -167 -390 -41 0 -83 37 -83 75 0 14 39 182
87 373 76 304 90 350 114 375 36 36 72 35 110 -2z m-593 -84 c15 -14 22 -32
22 -57 0 -43 -11 -54 -160 -165 -58 -43 -109 -81 -113 -85 -4 -4 51 -51 123
-105 72 -54 135 -106 140 -116 6 -10 10 -31 10 -47 0 -42 -52 -86 -92 -78 -37
7 -388 273 -407 308 -28 50 -9 73 179 216 96 73 188 139 204 146 34 16 63 11
94 -17z m1197 -125 c194 -148 212 -170 184 -220 -15 -28 -346 -286 -389 -303
-69 -28 -137 52 -100 120 5 10 68 62 140 116 72 54 127 101 123 105 -4 4 -55
42 -113 85 -58 43 -117 89 -132 103 -68 63 -4 170 82 139 14 -4 106 -70 205
-145z"/>
<path d="M3377 2879 c-160 -39 -325 -153 -409 -284 -21 -32 -50 -96 -64 -142
-23 -73 -26 -95 -22 -195 3 -83 10 -129 26 -173 13 -36 20 -71 17 -87 -4 -14
-34 -52 -68 -84 -34 -32 -102 -96 -151 -142 l-88 -85 108 -108 c107 -107 109
-109 155 -109 l47 0 124 130 c139 146 136 145 241 108 76 -26 252 -31 332 -9
100 28 200 88 273 166 114 119 173 246 191 409 10 89 7 116 -13 116 -6 0 -81
-70 -166 -156 -85 -85 -172 -164 -193 -175 -35 -18 -55 -20 -196 -17 -153 3
-159 4 -199 31 -69 45 -86 90 -90 242 -6 198 -9 191 184 385 90 91 164 173
164 183 0 14 -10 17 -62 16 -35 0 -98 -9 -141 -20z"/>
<path d="M2202 2790 c-72 -19 -168 -62 -227 -103 -16 -11 -146 -135 -287 -276
-276 -273 -279 -278 -238 -331 11 -14 20 -40 20 -59 0 -30 -11 -45 -78 -113
-88 -88 -95 -90 -188 -58 l-58 20 -58 -57 -58 -58 180 -180 180 -180 56 56 56
56 -22 71 c-12 39 -19 80 -16 90 4 10 42 53 85 95 86 84 105 91 156 57 64 -42
74 -36 262 153 104 104 174 182 178 198 6 23 -2 36 -45 84 -85 94 -107 169
-78 269 14 47 88 126 211 224 85 67 82 71 -31 42z"/>
<path d="M2085 1850 l-60 -60 273 -273 272 -272 60 60 60 60 -273 273 -272
272 -60 -60z"/>
<path d="M2000 1108 c-650 -612 -629 -589 -630 -701 0 -177 182 -287 341 -206
35 17 147 132 566 577 l201 213 -9 37 c-5 20 -6 45 -3 56 5 14 -21 46 -107
132 -63 63 -116 114 -119 114 -3 0 -111 -100 -240 -222z"/>
<path d="M2756 1181 l-119 -120 433 -440 c238 -242 441 -443 452 -446 40 -13
76 7 152 84 124 128 156 76 -356 597 -238 241 -435 440 -438 442 -3 1 -59 -52
-124 -117z"/>
<path d="M2508 776 c-43 -46 -78 -86 -78 -90 0 -3 74 -6 165 -6 91 0 165 3
165 8 0 9 -163 172 -170 171 -3 0 -40 -38 -82 -83z"/>
</g>
</svg>
