<?xml version="1.0" standalone="no"?>
<!DOCTYPE svg PUBLIC "-//W3C//DTD SVG 20010904//EN"
 "http://www.w3.org/TR/2001/REC-SVG-20010904/DTD/svg10.dtd">
<svg version="1.0" xmlns="http://www.w3.org/2000/svg"
 width="512.000000pt" height="512.000000pt" viewBox="0 0 512.000000 512.000000"
 preserveAspectRatio="xMidYMid meet">

<g transform="translate(0.000000,512.000000) scale(0.100000,-0.100000)"
fill="#000000" stroke="none">
<path d="M1672 4990 c-24 -22 -29 -68 -12 -100 5 -10 42 -30 81 -46 l72 -27
-124 -43 c-156 -54 -392 -171 -529 -263 -579 -384 -946 -962 -1057 -1663 -25
-159 -25 -517 1 -683 32 -211 112 -492 153 -537 36 -39 133 -4 133 48 0 10
-18 72 -40 139 -130 401 -144 846 -39 1252 101 392 318 765 611 1049 188 183
415 336 647 438 94 41 305 116 328 116 8 0 -10 -32 -46 -79 -67 -87 -79 -118
-60 -153 26 -49 79 -63 117 -30 29 25 261 338 272 367 12 32 -2 69 -32 88 -37
24 -396 147 -426 147 -16 0 -38 -9 -50 -20z"/>
<path d="M2805 4856 c-34 -34 -34 -87 0 -114 13 -11 52 -25 87 -31 462 -88
872 -310 1201 -650 280 -290 470 -633 566 -1022 79 -319 83 -680 10 -1017 -12
-56 -24 -100 -27 -97 -3 3 -23 44 -44 92 -48 107 -61 123 -105 123 -39 0 -83
-37 -83 -69 0 -31 177 -434 197 -448 9 -7 31 -13 48 -13 25 0 60 25 190 135
88 75 168 145 178 156 35 43 9 110 -48 125 -27 7 -57 -9 -124 -64 l-39 -32 13
57 c40 174 50 277 50 523 0 273 -11 366 -70 595 -105 414 -318 787 -620 1091
-264 265 -557 452 -900 574 -105 37 -327 95 -402 105 -47 6 -55 4 -78 -19z"/>
<path d="M2211 4213 c-12 -10 -43 -73 -69 -141 l-47 -123 -87 -29 c-48 -16
-128 -50 -179 -75 l-91 -46 -117 52 c-64 29 -131 52 -149 53 -29 0 -51 -18
-207 -174 -110 -110 -176 -184 -180 -201 -4 -19 9 -61 49 -151 l56 -126 -45
-89 c-24 -50 -58 -130 -74 -179 l-30 -89 -123 -48 c-68 -26 -131 -57 -140 -68
-16 -19 -18 -48 -18 -273 0 -299 -12 -273 155 -336 61 -23 115 -47 121 -53 6
-7 26 -54 43 -106 18 -52 50 -129 72 -172 l38 -77 -54 -124 c-30 -67 -55 -132
-55 -142 0 -12 70 -90 182 -203 147 -147 188 -183 209 -183 15 0 81 24 146 53
l119 54 98 -48 c54 -27 135 -61 180 -75 l82 -27 43 -116 c24 -64 55 -127 68
-141 l23 -25 234 -3 c309 -4 289 -13 353 154 l50 129 104 37 c57 20 138 54
180 75 l76 39 118 -53 c65 -29 132 -53 149 -53 25 0 56 26 208 178 151 151
178 183 178 208 0 16 -24 83 -54 148 l-53 120 38 75 c22 42 56 123 76 180 l38
103 125 49 c69 27 131 56 137 66 10 12 13 84 13 274 l0 258 -24 19 c-14 10
-76 38 -139 62 l-115 44 -27 80 c-14 45 -47 126 -74 181 l-47 100 53 118 c29
65 53 130 53 145 0 20 -38 64 -176 203 -97 98 -188 180 -201 184 -17 4 -62
-11 -150 -49 l-125 -56 -90 44 c-49 24 -130 57 -179 73 l-89 28 -46 120 c-68
176 -45 165 -343 165 -222 0 -251 -2 -270 -17z m484 -261 c24 -62 49 -119 55
-127 6 -7 63 -30 127 -50 64 -20 163 -61 221 -91 57 -30 113 -54 123 -54 11 0
71 23 135 52 l115 51 115 -114 c63 -62 114 -119 114 -125 0 -6 -20 -56 -44
-110 -64 -147 -65 -128 3 -265 34 -66 75 -167 92 -222 17 -56 39 -109 48 -118
9 -9 67 -36 129 -59 l112 -43 -2 -171 -3 -170 -108 -41 c-60 -23 -117 -49
-127 -57 -10 -9 -25 -42 -34 -75 -28 -98 -66 -194 -117 -290 -27 -50 -49 -97
-49 -103 0 -7 23 -63 50 -125 28 -62 50 -117 50 -121 0 -13 -223 -234 -236
-234 -6 0 -47 16 -90 36 -159 73 -140 73 -278 4 -67 -33 -159 -71 -206 -86
-157 -49 -138 -30 -206 -207 l-37 -97 -166 2 -166 3 -49 123 c-55 139 -44 129
-196 178 -47 14 -139 53 -206 86 l-120 61 -118 -52 c-65 -28 -123 -51 -129
-51 -7 0 -64 51 -126 114 l-114 115 51 118 c29 65 52 124 52 132 0 7 -29 73
-65 145 -35 72 -76 171 -90 221 -14 49 -31 95 -38 102 -6 6 -64 32 -127 56
l-115 45 -3 169 -2 170 115 43 c63 23 121 50 130 60 8 9 31 66 50 127 19 60
59 158 90 217 30 59 55 114 55 122 0 9 -23 67 -51 131 l-50 117 118 118 119
119 113 -51 c62 -27 122 -50 132 -50 10 0 65 24 123 54 57 29 156 70 219 91
64 20 122 44 130 53 8 10 34 68 57 130 l43 112 169 -2 170 -3 43 -113z"/>
<path d="M2390 3549 c-428 -33 -793 -335 -915 -756 -157 -542 156 -1117 700
-1286 447 -139 947 49 1194 447 110 177 155 340 154 561 0 130 -4 163 -27 250
-31 119 -106 276 -174 365 -224 295 -564 448 -932 419z m300 -180 c178 -41
364 -159 481 -307 278 -348 259 -837 -45 -1159 -289 -307 -742 -371 -1099
-156 -464 280 -574 899 -233 1318 217 267 554 382 896 304z"/>
<path d="M2538 2950 c-9 -6 -23 -29 -32 -53 -19 -52 -206 -751 -206 -770 0 -8
9 -26 21 -41 27 -35 86 -36 116 -3 14 15 51 138 122 402 55 210 101 391 101
403 0 51 -75 89 -122 62z"/>
<path d="M1980 2712 c-96 -81 -181 -159 -189 -173 -27 -48 -10 -69 178 -227
98 -83 188 -153 200 -157 28 -9 73 15 88 46 23 47 2 77 -137 193 -72 60 -130
111 -129 115 0 3 59 55 130 115 72 59 134 119 139 132 19 49 -21 103 -76 104
-25 0 -61 -26 -204 -148z"/>
<path d="M2722 2837 c-14 -14 -22 -36 -22 -57 0 -37 19 -57 178 -188 50 -42
92 -79 92 -83 0 -4 -42 -42 -92 -85 -150 -125 -178 -154 -178 -187 0 -15 4
-36 10 -46 14 -27 61 -44 91 -32 13 5 102 75 196 155 174 147 192 169 179 219
-3 14 -78 84 -187 175 -198 166 -222 177 -267 129z"/>
<path d="M660 1113 c-58 -21 -60 -46 -26 -327 21 -181 23 -190 50 -212 35 -31
71 -30 103 2 25 25 25 27 18 121 l-7 96 83 -74 c372 -330 815 -531 1312 -594
225 -29 547 -16 772 30 343 70 670 219 960 434 136 101 420 385 430 429 8 39
-12 77 -51 94 -37 17 -69 -4 -162 -109 -315 -353 -772 -609 -1257 -703 -677
-130 -1404 80 -1918 556 -64 60 -63 61 48 40 38 -8 76 -11 85 -8 33 11 60 46
60 77 0 59 -23 70 -262 114 -119 23 -218 41 -220 40 -1 0 -10 -3 -18 -6z"/>
</g>
</svg>
