<?xml version="1.0" standalone="no"?>
<!DOCTYPE svg PUBLIC "-//W3C//DTD SVG 20010904//EN"
 "http://www.w3.org/TR/2001/REC-SVG-20010904/DTD/svg10.dtd">
<svg version="1.0" xmlns="http://www.w3.org/2000/svg"
 width="512.000000pt" height="512.000000pt" viewBox="0 0 512.000000 512.000000"
 preserveAspectRatio="xMidYMid meet">

<g transform="translate(0.000000,512.000000) scale(0.100000,-0.100000)"
fill="#000000" stroke="none">
<path d="M115 5101 c-48 -22 -79 -54 -100 -103 -13 -32 -15 -110 -15 -555 0
-482 2 -521 19 -558 22 -48 54 -79 103 -100 30 -12 81 -15 258 -15 l220 0 0
-542 c1 -585 -1 -567 54 -588 18 -6 202 -10 517 -10 l489 0 0 -160 0 -160 -45
0 c-38 0 -47 4 -62 28 -53 85 -114 122 -203 122 -130 0 -220 -90 -220 -220 0
-127 91 -220 215 -220 89 0 165 42 201 112 13 25 20 28 63 28 l48 0 5 -159 c4
-154 5 -160 35 -212 22 -39 44 -63 81 -85 62 -37 106 -44 305 -44 l147 0 0
-445 0 -445 -440 0 -440 0 0 210 c0 168 -3 218 -15 248 -21 49 -52 81 -100
103 -37 17 -76 19 -560 19 -484 0 -523 -2 -560 -19 -48 -22 -79 -54 -100 -103
-23 -56 -23 -1050 0 -1106 21 -49 52 -81 100 -103 37 -17 76 -19 560 -19 484
0 523 2 560 19 48 22 79 54 100 103 12 30 15 82 15 267 l0 230 495 3 494 3 23
23 23 23 3 494 3 495 199 0 200 0 0 -165 0 -164 -27 -15 c-71 -37 -113 -110
-113 -196 0 -130 90 -220 220 -220 130 0 220 90 220 220 0 86 -42 159 -112
196 l-28 15 0 163 0 163 163 5 c160 4 165 5 218 35 67 37 113 107 122 185 4
29 7 160 7 291 l0 237 455 0 455 0 0 -530 0 -530 -222 0 c-195 0 -228 -3 -263
-19 -92 -42 -115 -96 -115 -269 0 -115 2 -130 20 -150 28 -30 82 -30 110 0 18
19 20 35 20 143 0 81 4 125 12 133 9 9 137 12 515 12 486 0 503 -1 513 -19 6
-13 10 -191 10 -510 0 -432 -2 -491 -16 -505 -14 -14 -73 -16 -505 -16 -319 0
-497 4 -510 10 -18 10 -19 24 -19 256 0 138 -4 253 -10 263 -5 10 -22 24 -39
30 -24 10 -34 10 -59 -3 -16 -8 -32 -23 -36 -31 -3 -9 -6 -130 -6 -268 0 -274
5 -303 61 -354 58 -53 58 -53 616 -53 482 0 521 2 558 19 48 22 79 54 100 103
13 32 15 110 15 555 0 482 -2 521 -19 558 -22 48 -54 79 -103 100 -30 12 -81
15 -258 15 l-220 0 0 580 0 581 -25 24 -24 25 -506 0 -505 0 0 125 0 125 178
0 177 0 20 -37 c11 -21 40 -51 63 -68 40 -27 51 -30 126 -30 73 0 87 3 124 27
131 87 131 289 0 376 -37 24 -51 27 -124 27 -76 0 -86 -2 -126 -30 -23 -17
-53 -50 -66 -73 l-23 -42 -173 0 -173 0 -5 159 c-4 154 -5 160 -35 212 -22 40
-44 62 -83 87 l-54 32 -168 0 -168 0 0 460 0 460 410 0 410 0 0 -222 c0 -242
7 -275 61 -325 58 -53 59 -53 614 -53 443 0 521 2 553 15 49 21 81 52 103 100
17 37 19 76 19 560 0 484 -2 523 -19 560 -22 48 -54 79 -103 100 -32 13 -110
15 -553 15 -555 0 -556 0 -614 -53 -54 -50 -61 -83 -61 -324 l0 -223 -462 0
c-508 -1 -490 1 -508 -61 -6 -20 -10 -239 -10 -521 l0 -488 -200 0 -200 0 0
150 0 149 28 15 c127 67 152 258 45 357 -46 43 -87 59 -153 59 -130 0 -220
-90 -220 -220 0 -86 42 -159 113 -196 l27 -15 0 -149 0 -150 -198 0 -198 0
-54 -32 c-39 -25 -61 -47 -84 -88 l-31 -55 -4 -247 -3 -248 -454 0 -454 0 0
495 0 495 223 0 c194 0 227 3 262 19 92 42 115 96 115 269 0 115 -2 130 -20
150 -28 30 -82 30 -110 0 -18 -19 -20 -35 -20 -139 0 -94 -3 -121 -16 -133
-14 -14 -73 -16 -505 -16 -319 0 -497 4 -510 10 -18 10 -19 27 -19 513 0 378
3 506 12 515 9 9 137 12 515 12 486 0 503 -1 513 -19 6 -12 10 -113 10 -258 0
-227 1 -240 20 -261 14 -14 33 -22 55 -22 22 0 41 8 55 22 19 21 20 34 20 275
0 206 -3 261 -15 291 -21 49 -52 81 -100 103 -37 17 -76 19 -560 19 -484 0
-523 -2 -560 -19z m4845 -150 c6 -13 10 -191 10 -510 0 -432 -2 -491 -16 -505
-14 -14 -73 -16 -505 -16 -319 0 -497 4 -510 10 -18 10 -19 27 -19 513 0 378
3 506 12 515 9 9 137 12 515 12 486 0 503 -1 513 -19z m-2598 -938 c23 -20 24
-80 1 -105 -20 -23 -80 -24 -105 -1 -23 20 -24 80 -1 105 20 23 80 24 105 1z
m915 -735 l23 -21 0 -697 0 -697 -26 -24 -26 -24 -688 0 -688 0 -26 24 -26 24
0 696 0 695 22 23 21 23 696 0 695 0 23 -22z m802 -344 c12 -15 21 -34 21 -44
0 -10 -9 -29 -21 -44 -41 -52 -129 -23 -129 44 0 67 88 96 129 44z m-2677
-641 c23 -20 24 -80 1 -105 -20 -23 -80 -24 -105 -1 -23 20 -24 80 -1 105 20
23 80 24 105 1z m-212 -1112 c6 -13 10 -191 10 -510 0 -432 -2 -491 -16 -505
-14 -14 -73 -16 -505 -16 -319 0 -497 4 -510 10 -18 10 -19 27 -19 513 0 378
3 506 12 515 9 9 137 12 515 12 486 0 503 -1 513 -19z m1732 -8 c23 -20 24
-80 1 -105 -20 -23 -80 -24 -105 -1 -23 20 -24 80 -1 105 20 23 80 24 105 1z"/>
<path d="M4128 4804 c-55 -29 -58 -47 -58 -359 0 -314 3 -330 60 -360 43 -22
587 -22 630 0 57 30 60 46 60 360 0 314 -3 330 -60 360 -42 22 -591 22 -632
-1z m542 -359 l0 -225 -225 0 -225 0 0 225 0 225 225 0 225 0 0 -225z"/>
<path d="M2001 3120 c-22 -23 -31 -43 -36 -83 -3 -28 -5 -263 -3 -522 3 -516
2 -502 65 -536 39 -21 1027 -21 1066 0 63 34 62 20 65 536 2 259 0 494 -3 522
-5 40 -14 60 -36 83 l-31 30 -122 0 c-139 0 -156 -8 -156 -72 0 -53 26 -70
115 -76 l75 -5 0 -443 0 -444 -440 0 -440 0 0 444 0 445 234 3 c213 3 236 5
255 22 27 25 29 86 3 109 -16 15 -52 17 -300 17 l-280 0 -31 -30z"/>
<path d="M358 1034 c-55 -29 -58 -47 -58 -359 0 -314 3 -330 60 -360 43 -22
587 -22 630 0 57 30 60 46 60 360 0 314 -3 330 -60 360 -42 22 -591 22 -632
-1z m542 -359 l0 -225 -225 0 -225 0 0 225 0 225 225 0 225 0 0 -225z"/>
<path d="M358 4804 c-55 -29 -58 -47 -58 -359 0 -314 3 -330 60 -360 43 -22
587 -22 630 0 57 30 60 46 60 360 0 314 -3 330 -60 360 -42 22 -591 22 -632
-1z m542 -359 l0 -225 -225 0 -225 0 0 225 0 225 225 0 225 0 0 -225z"/>
<path d="M4128 1034 c-55 -29 -58 -47 -58 -359 0 -314 3 -330 60 -360 43 -22
587 -22 630 0 57 30 60 46 60 360 0 314 -3 330 -60 360 -42 22 -591 22 -632
-1z m542 -359 l0 -225 -225 0 -225 0 0 225 0 225 225 0 225 0 0 -225z"/>
</g>
</svg>
