<?xml version="1.0" standalone="no"?>
<!DOCTYPE svg PUBLIC "-//W3C//DTD SVG 20010904//EN"
 "http://www.w3.org/TR/2001/REC-SVG-20010904/DTD/svg10.dtd">
<svg version="1.0" xmlns="http://www.w3.org/2000/svg"
 width="512.000000pt" height="512.000000pt" viewBox="0 0 512.000000 512.000000"
 preserveAspectRatio="xMidYMid meet">

<g transform="translate(0.000000,512.000000) scale(0.100000,-0.100000)"
fill="#000000" stroke="none">
<path d="M2395 5024 c-378 -38 -647 -112 -943 -260 -146 -73 -168 -81 -182
-69 -27 25 -100 45 -159 45 -143 -1 -251 -112 -251 -260 0 -152 108 -259 261
-260 111 0 196 56 242 159 15 34 18 60 15 116 l-3 73 95 50 c332 175 693 263
1080 264 350 1 657 -63 970 -202 161 -71 360 -189 338 -200 -7 -4 -61 -15
-120 -25 -123 -21 -151 -38 -146 -87 2 -19 13 -38 29 -51 27 -19 27 -19 240
18 117 20 221 41 231 46 10 5 21 21 24 36 10 39 -61 441 -82 464 -23 25 -76
25 -99 -1 -21 -24 -22 -46 -1 -165 9 -50 16 -95 16 -102 0 -6 -44 16 -97 49
-271 171 -616 295 -955 343 -102 15 -425 27 -503 19z m-1215 -439 c38 -19 60
-63 60 -116 0 -33 -6 -47 -34 -75 -30 -30 -40 -34 -86 -34 -46 0 -56 4 -86 34
-28 28 -34 42 -34 75 0 103 91 162 180 116z"/>
<path d="M4362 4234 c-93 -46 -141 -127 -142 -235 0 -111 56 -196 159 -242 34
-15 60 -18 116 -15 l73 3 40 -75 c128 -237 221 -529 257 -805 18 -140 21 -440
5 -571 -28 -227 -89 -456 -177 -664 -73 -171 -201 -392 -213 -368 -4 7 -15 61
-25 120 -14 84 -22 112 -40 128 -30 28 -72 23 -98 -11 -19 -27 -19 -27 18
-240 20 -117 41 -221 46 -231 5 -10 21 -21 36 -24 39 -10 441 61 464 82 25 23
25 76 -1 99 -24 21 -46 22 -165 1 -50 -9 -95 -16 -102 -16 -6 0 16 44 49 97
176 279 299 630 350 998 16 118 16 474 -1 595 -39 290 -121 557 -247 809 -73
145 -81 167 -69 181 42 46 58 179 30 246 -60 143 -226 206 -363 138z m178
-129 c35 -18 60 -62 60 -105 0 -71 -53 -120 -131 -120 -33 0 -47 6 -75 34 -30
30 -34 40 -34 86 0 46 4 56 34 86 28 28 42 34 75 34 23 0 55 -7 71 -15z"/>
<path d="M446 4084 c-124 -22 -195 -39 -207 -50 -25 -23 -25 -76 1 -99 24 -21
46 -22 165 -1 50 9 95 16 102 16 6 0 -16 -44 -49 -97 -176 -280 -298 -627
-350 -998 -16 -117 -16 -473 1 -595 39 -290 121 -556 247 -809 73 -145 81
-167 69 -181 -45 -49 -58 -185 -26 -256 24 -52 83 -111 135 -135 86 -39 206
-20 283 45 82 69 108 211 57 314 -49 99 -134 146 -249 140 l-73 -3 -50 95
c-126 238 -215 524 -253 815 -17 135 -15 438 5 580 46 329 163 658 327 924 35
57 54 79 59 70 4 -8 15 -62 25 -121 14 -84 22 -112 40 -128 30 -28 72 -23 98
11 19 27 19 27 -18 240 -20 117 -40 221 -45 230 -21 38 -48 37 -294 -7z m280
-2878 c30 -30 34 -40 34 -86 0 -46 -4 -56 -34 -86 -28 -28 -42 -34 -75 -34
-78 0 -131 49 -131 120 0 72 51 119 129 120 36 0 49 -6 77 -34z"/>
<path d="M1905 3705 c-346 -201 -638 -374 -647 -386 -17 -20 -18 -71 -18 -760
l0 -738 23 -24 c30 -33 1270 -747 1297 -747 27 0 1267 714 1298 747 l22 24 0
739 0 739 -22 24 c-33 35 -1272 747 -1300 746 -13 0 -306 -164 -653 -364z
m1205 -102 c303 -175 550 -320 550 -323 0 -5 -278 -167 -296 -172 -14 -4
-1105 624 -1101 635 2 6 284 175 295 177 1 0 250 -143 552 -317z m-445 -263
c300 -173 545 -317 545 -320 0 -3 -45 -31 -100 -62 l-100 -56 -197 114 c-109
62 -356 205 -550 316 -194 112 -352 205 -353 208 0 7 194 119 202 117 4 -1
253 -144 553 -317z m-354 -197 c302 -174 549 -320 549 -323 0 -4 -67 -45 -150
-93 l-150 -86 -550 317 c-302 174 -550 319 -550 322 0 4 286 176 299 179 2 1
250 -142 552 -316z m-376 -303 c297 -171 543 -315 548 -319 4 -4 6 -293 5
-643 l-3 -635 -395 228 c-217 126 -466 270 -552 320 l-158 91 0 640 c0 351 3
637 8 635 4 -3 250 -145 547 -317z m1798 -961 c-5 -4 -240 -141 -523 -304
-283 -163 -530 -306 -548 -317 l-32 -20 2 642 3 642 153 88 152 89 0 -250 0
-250 25 -24 c13 -14 34 -25 45 -25 20 0 347 183 393 220 22 18 22 22 27 316
l5 298 150 87 150 87 3 -636 c1 -350 -1 -639 -5 -643z m-443 802 l0 -219 -105
-61 -105 -60 2 221 3 220 100 59 c55 32 101 58 103 59 1 0 2 -99 2 -219z"/>
<path d="M3882 874 c-99 -49 -146 -134 -140 -249 l3 -73 -95 -50 c-238 -126
-524 -215 -815 -253 -137 -17 -439 -15 -580 5 -341 48 -642 156 -933 334 -49
30 -69 48 -60 52 7 4 61 15 120 25 84 14 112 23 128 41 28 29 23 71 -11 97
-27 19 -27 19 -240 -18 -117 -20 -221 -41 -231 -46 -10 -5 -21 -21 -24 -36
-10 -39 61 -441 82 -464 23 -25 76 -25 99 1 21 24 22 46 1 165 -9 50 -16 95
-16 102 0 6 44 -16 97 -49 282 -177 641 -302 1003 -350 124 -16 470 -16 590 1
290 39 556 121 809 247 145 73 167 81 181 69 45 -41 169 -57 242 -31 143 51
211 226 142 364 -46 93 -127 141 -235 142 -50 0 -77 -6 -117 -26z m204 -148
c28 -28 34 -42 34 -75 0 -78 -49 -131 -120 -131 -71 0 -120 53 -120 131 0 33
6 47 34 75 30 30 40 34 86 34 46 0 56 -4 86 -34z"/>
</g>
</svg>
