<?xml version="1.0" standalone="no"?>
<!DOCTYPE svg PUBLIC "-//W3C//DTD SVG 20010904//EN"
 "http://www.w3.org/TR/2001/REC-SVG-20010904/DTD/svg10.dtd">
<svg version="1.0" xmlns="http://www.w3.org/2000/svg"
 width="512.000000pt" height="512.000000pt" viewBox="0 0 512.000000 512.000000"
 preserveAspectRatio="xMidYMid meet">

<g transform="translate(0.000000,512.000000) scale(0.100000,-0.100000)" stroke="none">
<path d="M2338 5110 c-138 -13 -171 -49 -187 -205 -13 -124 -37 -197 -96 -285
-105 -158 -264 -242 -452 -241 -158 1 -278 45 -398 146 -88 75 -143 93 -198
63 -56 -29 -189 -149 -327 -294 -176 -185 -186 -235 -68 -363 100 -107 148
-233 148 -383 0 -306 -212 -524 -547 -560 -118 -13 -157 -31 -179 -83 -46
-110 -44 -610 3 -681 24 -37 107 -74 165 -74 150 0 313 -80 416 -203 95 -114
138 -245 129 -392 -9 -145 -48 -236 -153 -360 -97 -114 -95 -157 11 -284 78
-93 239 -254 320 -321 94 -77 157 -74 250 10 105 95 229 148 365 157 166 10
302 -39 420 -153 110 -106 164 -227 176 -397 8 -106 20 -137 66 -165 85 -53
602 -56 690 -5 49 29 66 67 77 178 13 124 37 197 96 285 105 158 264 242 452
241 158 -1 278 -45 398 -146 88 -75 143 -93 198 -63 84 44 416 369 455 445 35
68 18 127 -60 212 -101 109 -148 232 -148 389 0 160 57 290 175 401 107 100
217 145 378 157 151 11 180 40 196 203 21 202 7 507 -25 555 -26 41 -81 67
-163 76 -184 21 -271 60 -382 170 -125 123 -176 256 -166 425 9 143 49 237
153 360 97 114 95 157 -11 284 -78 93 -239 254 -320 321 -93 76 -159 74 -245
-6 -60 -56 -146 -108 -229 -136 -88 -31 -268 -33 -350 -4 -173 60 -312 206
-365 384 -8 30 -18 95 -22 145 -8 106 -20 137 -68 166 -58 36 -357 52 -578 31z
m427 -1091 c562 -72 1050 -494 1210 -1045 65 -224 76 -483 30 -711 -29 -140
-105 -343 -163 -431 -15 -23 -18 -21 -338 299 l-322 322 19 54 c109 316 35
666 -190 905 -224 239 -517 335 -836 276 -106 -20 -135 -44 -135 -114 0 -36
12 -50 230 -269 263 -264 242 -224 215 -412 -19 -138 -34 -191 -54 -197 -35
-11 -195 -36 -271 -42 l-80 -7 -228 226 c-125 124 -240 231 -255 236 -59 22
-114 -24 -131 -109 -64 -318 30 -628 256 -846 160 -156 351 -239 573 -251 125
-6 218 5 332 42 l78 25 323 -323 c177 -177 321 -326 319 -332 -6 -17 -220
-120 -317 -152 -573 -189 -1193 -19 -1583 432 -533 617 -467 1546 148 2078
326 282 731 402 1170 346z"/>
</g>
</svg>
