<?xml version="1.0" standalone="no"?>
<!DOCTYPE svg PUBLIC "-//W3C//DTD SVG 20010904//EN"
 "http://www.w3.org/TR/2001/REC-SVG-20010904/DTD/svg10.dtd">
<svg version="1.0" xmlns="http://www.w3.org/2000/svg"
 width="1200.000000pt" height="1200.000000pt" viewBox="0 0 1200.000000 1200.000000"
 preserveAspectRatio="xMidYMid meet">

<g transform="translate(0.000000,1200.000000) scale(0.100000,-0.100000)"
fill="#000000" stroke="none">
<path d="M5710 10239 c-630 -45 -1261 -234 -1804 -541 -532 -301 -1023 -747
-1383 -1258 -338 -478 -578 -1042 -692 -1625 -115 -586 -105 -1192 30 -1780
85 -370 248 -789 440 -1128 269 -476 656 -922 1104 -1272 408 -318 915 -573
1440 -724 556 -160 1186 -201 1775 -115 419 61 835 189 1218 374 214 104 312
160 517 296 1183 785 1895 2113 1895 3535 0 627 -144 1262 -416 1827 -213 444
-450 784 -789 1131 -230 236 -425 399 -685 573 -480 321 -1007 537 -1570 642
-354 66 -737 89 -1080 65z m544 -94 c495 -20 1046 -163 1541 -400 844 -403
1543 -1101 1946 -1940 303 -632 440 -1302 408 -1998 -28 -601 -167 -1133 -438
-1670 -587 -1168 -1696 -1999 -2971 -2226 -470 -84 -994 -86 -1450 -6 -1070
189 -2026 788 -2662 1671 -365 506 -614 1097 -723 1714 -47 269 -66 583 -53
892 51 1280 695 2456 1758 3214 635 453 1414 719 2204 753 94 4 200 6 236 5
36 -2 127 -6 204 -9z"/>
<path d="M5935 9190 c-22 -5 -53 -13 -69 -19 -66 -26 -1073 -638 -1112 -677
-22 -22 -54 -67 -70 -100 l-29 -59 0 -700 0 -700 28 -57 c15 -31 45 -74 66
-96 24 -25 228 -153 547 -344 280 -168 529 -316 554 -329 63 -32 195 -38 266
-12 29 10 292 162 585 338 582 350 581 349 631 472 l23 58 3 624 c2 415 -1
648 -8 695 -13 83 -58 172 -110 220 -46 41 -1048 643 -1109 666 -58 22 -144
31 -196 20z m-230 -1110 c156 -93 288 -170 295 -170 7 0 139 77 295 170 244
146 289 170 324 170 86 0 147 -101 107 -178 -13 -24 -79 -69 -311 -208 l-295
-177 0 -360 0 -360 -36 -33 c-40 -39 -93 -45 -144 -19 -59 30 -60 40 -60 424
l0 350 -294 177 c-246 147 -297 181 -310 209 -20 41 -20 68 -1 105 23 44 62
70 107 70 34 0 84 -26 323 -170z"/>
<path d="M4913 4623 c3 -491 6 -586 19 -631 34 -111 94 -177 183 -201 83 -23
275 -8 275 21 0 11 -28 186 -35 223 -3 14 -13 21 -32 22 -15 0 -35 11 -45 23
-17 21 -18 59 -18 571 l0 549 -176 0 -175 0 4 -577z"/>
<path d="M3710 4450 l0 -650 293 0 c308 1 392 9 497 49 77 29 149 87 187 150
61 101 65 260 9 354 -31 54 -50 70 -127 112 -35 19 -58 35 -51 35 7 0 32 18
56 40 61 56 100 145 100 230 2 176 -87 273 -286 314 -61 13 -142 16 -378 16
l-300 0 0 -650z m544 380 c60 -14 81 -40 81 -105 0 -47 -4 -59 -30 -85 -33
-33 -99 -50 -191 -50 l-54 0 0 125 0 125 78 0 c42 0 95 -5 116 -10z m48 -501
c86 -23 121 -102 83 -182 -28 -59 -78 -77 -213 -77 l-112 0 0 135 0 135 103 0
c56 0 119 -5 139 -11z"/>
<path d="M5842 4819 c-78 -10 -196 -49 -278 -92 l-62 -32 59 -111 59 -112 83
36 c147 65 277 54 305 -26 l10 -30 -81 -12 c-99 -15 -234 -53 -289 -81 -59
-30 -123 -93 -149 -147 -18 -37 -23 -64 -23 -127 0 -101 27 -166 93 -228 67
-62 121 -81 223 -75 87 5 142 26 217 82 19 14 38 26 42 26 4 0 12 -20 18 -45
l11 -45 140 0 140 0 0 328 c0 348 -7 418 -50 501 -49 97 -137 161 -257 186
-74 16 -115 17 -211 4z m178 -643 c0 -60 -2 -66 -34 -94 -103 -90 -247 -10
-158 89 28 32 115 68 165 69 27 0 27 -1 27 -64z"/>
<path d="M7870 4819 c-82 -14 -189 -70 -252 -133 -102 -102 -148 -223 -148
-386 0 -111 18 -189 62 -272 107 -201 358 -295 608 -227 78 21 202 78 202 92
0 5 -23 52 -53 106 l-53 98 -55 -26 c-48 -22 -69 -26 -151 -26 -81 0 -101 3
-135 23 -41 23 -77 68 -90 110 l-6 22 284 0 285 0 6 23 c3 12 6 65 6 117 0
193 -65 338 -187 419 -81 54 -213 79 -323 60z m168 -276 c25 -15 52 -69 52
-103 0 -19 -6 -20 -145 -20 -159 0 -161 1 -131 58 43 82 148 113 224 65z"/>
<path d="M6590 4665 l0 -135 165 0 c91 0 165 -2 165 -5 0 -3 -83 -125 -185
-272 l-185 -267 0 -93 0 -93 410 0 410 0 0 135 0 135 -190 0 c-104 0 -190 3
-190 6 0 3 69 105 153 227 85 122 168 243 185 269 30 44 32 52 32 137 l0 91
-385 0 -385 0 0 -135z"/>
</g>
</svg>
