<?xml version="1.0" encoding="UTF-8"?>
<svg id="Calque_1" data-name="Calque 1" xmlns="http://www.w3.org/2000/svg" viewBox="0 0 842.16 842.16">
  <defs>
    <style>
      .cls-1 {
        fill: #f3d503;
      }
    </style>
  </defs>
  <circle class="cls-1" cx="421.08" cy="421.08" r="421.08"/>
  <path d="m407.26,138.13c-4.02.91-9.68,2.37-12.6,3.46-12.04,4.74-195.86,116.3-202.98,123.4-4.02,4.01-9.86,12.21-12.77,18.23l-5.29,10.75v255.2l5.12,10.38c2.74,5.65,8.21,13.49,12.04,17.5,4.38,4.56,41.62,27.89,99.85,62.71,51.11,30.62,96.56,57.6,101.12,59.97,11.5,5.83,35.59,6.93,48.56,2.18,5.29-1.82,53.3-29.53,106.78-61.61,70.83-42.53,109.22-71.21,115.19-86.04l4.2-10.57.54-113.75c.37-75.64-.18-118.12-1.47-126.68-2.38-15.13-10.59-31.36-20.08-40.1-8.4-7.47-191.3-117.21-202.43-121.4-10.59-4.01-26.28-5.65-35.78-3.65h.01Zm-40.7,202.34c28.48,16.96,52.58,30.99,53.85,30.99s25.37-14.03,53.85-30.99c44.54-26.61,52.75-30.99,59.15-30.99,15.69,0,26.84,18.41,19.53,32.44-2.38,4.38-14.42,12.58-56.77,37.92l-53.85,32.26v131.24l-6.57,6.02c-7.3,7.1-16.98,8.2-26.28,3.46-10.77-5.46-10.96-7.29-10.96-77.29v-63.8l-53.66-32.26c-44.91-26.8-54.22-33-56.58-38.09-3.65-7.47-3.65-12.39-.18-19.14,4.2-8.03,11.32-12.76,19.53-12.76,6.2,0,15.34,4.74,58.96,30.99h-.03Z"/>
</svg>